# File created by Blade
# Date/Time:  Tue Sep 30 19:31:19 2014
#---------------------------------------------------------
:version 1.10
:name HOM
:units
  mass 1.0
  length 1.000000
  angle deg
:documentation
     Acclaim Skeleton File
:root
   axis xyz
   order TX TY TZ RX RY RZ
   position 0.000000 0.000000 0.000000
   orientation 0 0 0
:bonedata
   begin
      id 1
      name Spine_dum
      direction 0.000000 1.000000 0.000000
      length 3.241213
      axis 0.0 0.0 0.0 xyz
   end
   begin
      id 2
      name LeftUpLeg_dum
      direction 1.000000 0.000000 0.000000
      length 3.434019
      axis 0.0 0.0 0.0 xyz
   end
   begin
      id 3
      name RightUpLeg_dum
      direction -1.000000 0.000000 0.000000
      length 3.434019
      axis 0.0 0.0 0.0 xyz
   end
   begin
      id 4
      name Spine
      direction 0.000000 1.000000 0.000000
      length 0.000000
      axis 0.0 0.0 0.0 xyz
      dof rx ry rz
   end
   begin
      id 5
      name Spine_dum1
      direction 0.000000 1.000000 0.000000
      length 18.382958
      axis 0.0 0.0 0.0 xyz
   end
   begin
      id 6
      name Spine_dum2
      direction 0.000000 1.000000 0.000000
      length 12.828261
      axis 0.0 0.0 0.0 xyz
   end
   begin
      id 7
      name Spine_dum3
      direction 0.000000 1.000000 0.000000
      length 12.828261
      axis 0.0 0.0 0.0 xyz
   end
   begin
      id 8
      name Head
      direction 0.000000 1.000000 0.000000
      length 4.527550
      axis 0.0 0.0 0.0 xyz
      dof rx ry rz
   end
   begin
      id 9
      name LeftShoulder
      direction 1.000000 0.000000 0.000000
      length 7.748055
      axis 0.0 0.0 -90.0 xyz
      dof rx ry rz
   end
   begin
      id 10
      name LeftArm
      direction 1.000000 0.000000 0.000000
      length 10.635614
      axis 0.0 0.0 -90.0 xyz
      dof rx ry rz
   end
   begin
      id 11
      name LeftForeArm
      direction 1.000000 0.000000 0.000000
      length 8.346755
      axis 0.0 0.0 -90.0 xyz
      dof ry rz rx
   end
   begin
      id 12
      name LeftHand
      direction 0.000000 0.000000 0.000000
      length 0.000000
      axis 0.0 0.0 -90.0 xyz
      dof rx ry rz
   end
   begin
      id 13
      name LeftHand_dum1
      direction 0.000000 0.000000 0.000000
      length 0.000000
      axis 0.0 0.0 -90.0 xyz
   end
   begin
      id 14
      name LeftHand_dum2
      direction 1.000000 0.000000 0.000000
      length 3.937000
      axis 0.0 0.0 -90.0 xyz
   end
   begin
      id 15
      name LeftHandThumb1
      direction 0.000000 0.000000 1.000000
      length 3.937000
      axis 0.0 0.0 -90.0 xyz
      dof rx rz ry
   end
   begin
      id 16
      name RightShoulder
      direction -1.000000 0.000000 0.000000
      length 7.748055
      axis 0.0 0.0 90.0 xyz
      dof rx ry rz
   end
   begin
      id 17
      name RightArm
      direction -1.000000 0.000000 0.000000
      length 10.635614
      axis 0.0 0.0 90.0 xyz
      dof rx ry rz
   end
   begin
      id 18
      name RightForeArm
      direction -1.000000 0.000000 0.000000
      length 8.346755
      axis 0.0 0.0 90.0 xyz
      dof ry rz rx
   end
   begin
      id 19
      name RightHand
      direction 0.000000 0.000000 0.000000
      length 0.000000
      axis 0.0 0.0 90.0 xyz
      dof rx ry rz
   end
   begin
      id 20
      name RightHand_dum1
      direction 0.000000 0.000000 0.000000
      length 0.000000
      axis 0.0 0.0 90.0 xyz
   end
   begin
      id 21
      name RightHand_dum2
      direction -1.000000 0.000000 0.000000
      length 3.937000
      axis 0.0 0.0 90.0 xyz
   end
   begin
      id 22
      name RightHandThumb1
      direction 0.000000 0.000000 1.000000
      length 3.937000
      axis 0.0 0.0 90.0 xyz
      dof rx rz ry
   end
   begin
      id 23
      name LeftUpLeg
      direction 0.000000 -1.000000 0.000000
      length 15.713025
      axis 0.0 0.0 0.0 xyz
      dof rx ry rz
   end
   begin
      id 24
      name LeftLeg
      direction 0.000000 -1.000000 0.000000
      length 14.435119
      axis 0.0 0.0 0.0 xyz
      dof rx ry rz
   end
   begin
      id 25
      name LeftFoot
      direction 0.000000 -0.258819 0.965926
      length 4.938895
      axis 15.0 0.0 0.0 xyz
      dof rx ry rz
   end
   begin
      id 26
      name LeftToeBase
      direction 0.000000 0.000000 1.000000
      length 2.952750
      axis 0.0 0.0 0.0 xyz
      dof rx ry rz
   end
   begin
      id 27
      name RightUpLeg
      direction 0.000000 -1.000000 0.000000
      length 15.713025
      axis 0.0 0.0 0.0 xyz
      dof rx ry rz
   end
   begin
      id 28
      name RightLeg
      direction 0.000000 -1.000000 0.000000
      length 14.435119
      axis 0.0 0.0 0.0 xyz
      dof rx ry rz
   end
   begin
      id 29
      name RightFoot
      direction 0.000000 -0.258819 0.965926
      length 4.938895
      axis 15.0 0.0 0.0 xyz
      dof rx ry rz
   end
   begin
      id 30
      name RightToeBase
      direction 0.000000 0.000000 1.000000
      length 2.952750
      axis 0.0 0.0 0.0 xyz
      dof rx ry rz
   end
:hierarchy
   begin
      root Spine_dum LeftUpLeg_dum RightUpLeg_dum
      Spine_dum Spine
      LeftUpLeg_dum LeftUpLeg
      RightUpLeg_dum RightUpLeg
      Spine Spine_dum1 Spine_dum2 Spine_dum3
      Spine_dum1 Head
      Spine_dum2 LeftShoulder
      Spine_dum3 RightShoulder
      LeftShoulder LeftArm
      LeftArm LeftForeArm
      LeftForeArm LeftHand
      LeftHand LeftHand_dum1 LeftHand_dum2
      LeftHand_dum1 LeftHandThumb1
      RightShoulder RightArm
      RightArm RightForeArm
      RightForeArm RightHand
      RightHand RightHand_dum1 RightHand_dum2
      RightHand_dum1 RightHandThumb1
      LeftUpLeg LeftLeg
      LeftLeg LeftFoot
      LeftFoot LeftToeBase
      RightUpLeg RightLeg
      RightLeg RightFoot
      RightFoot RightToeBase
   end

# File created by Blade
# Date/Time:  Thu Sep 25 17:54:10 2014
# Frame Rate: 120.000 fps
#------------------------------------------------------
:FULLY-SPECIFIED
:DEGREES
339
root -0.043863 32.558514 -5.479770 28.572132 3.069660 0.101044
Spine -33.058663 1.645955 -4.829558
Head 29.305195 -26.482764 -16.721512
LeftShoulder -27.020037 45.048796 32.407504
LeftArm 141.451028 -52.499008 -162.670595
LeftForeArm -58.581033 -0.000000 120.216973
LeftHand -10.755175 -0.000000 -12.630651
LeftHandThumb1 -26.253704 0.000000 33.147579
RightShoulder -70.554396 46.894831 -141.454677
RightArm 54.387274 13.771804 59.376343
RightForeArm 33.587198 0.000000 132.470169
RightHand 9.539059 0.000000 0.115583
RightHandThumb1 -24.326973 -0.000000 -32.862282
LeftUpLeg -21.474626 2.401655 0.802309
LeftLeg -1.186072 -0.000000 0.000000
LeftFoot -5.306106 -1.637835 -1.958498
LeftToeBase 2.816956 -0.000000 -0.000000
RightUpLeg -21.267467 -7.364654 4.523440
RightLeg -1.199262 -0.000000 0.000000
RightFoot -9.214421 -2.865271 11.175496
RightToeBase 15.376701 -0.000000 -0.000000
340
root -0.051769 32.559393 -5.489275 28.580460 3.063133 0.089390
Spine -32.994976 1.631490 -4.872178
Head 29.273787 -26.283535 -16.815365
LeftShoulder -27.058658 45.114720 32.295297
LeftArm 141.386689 -52.501667 -162.665617
LeftForeArm -58.523662 -0.000000 120.265611
LeftHand -10.774267 -0.000000 -12.552910
LeftHandThumb1 -26.253704 0.000000 33.147579
RightShoulder -70.576220 46.918427 -141.530834
RightArm 54.432067 13.750491 59.357798
RightForeArm 33.665514 -0.000000 132.378140
RightHand 9.485824 -0.000000 0.158682
RightHandThumb1 -24.326973 -0.000000 -32.862282
LeftUpLeg -21.496502 2.428023 0.816794
LeftLeg -1.195787 -0.000000 0.000000
LeftFoot -5.292774 -1.645108 -1.975474
LeftToeBase 2.830750 -0.000000 -0.000000
RightUpLeg -21.290976 -7.377991 4.555380
RightLeg -1.211255 -0.000000 0.000000
RightFoot -9.178737 -2.822316 11.214621
RightToeBase 15.345964 -0.000000 -0.000000
341
root -0.059126 32.559997 -5.498687 28.582576 3.039706 0.100526
Spine -32.916868 1.633714 -4.966088
Head 29.250043 -26.210274 -16.940693
LeftShoulder -27.103944 45.199667 32.195621
LeftArm 141.329684 -52.407914 -162.699172
LeftForeArm -58.539245 -0.000000 120.317842
LeftHand -10.816339 -0.000000 -12.503104
LeftHandThumb1 -26.253704 0.000000 33.147579
RightShoulder -70.740797 46.974117 -141.793677
RightArm 54.365101 13.654361 59.369989
RightForeArm 33.635934 0.000000 132.289117
RightHand 9.494267 0.000000 0.228242
RightHandThumb1 -24.326973 -0.000000 -32.862282
LeftUpLeg -21.512822 2.502720 0.782090
LeftLeg -1.202287 -0.000000 0.000000
LeftFoot -5.258488 -1.698083 -1.960231
LeftToeBase 2.814364 -0.000000 -0.000000
RightUpLeg -21.304051 -7.379680 4.554539
RightLeg -1.228425 -0.000000 0.000000
RightFoot -9.164426 -2.772565 11.246351
RightToeBase 15.403654 -0.000000 -0.000000
342
root -0.069265 32.561225 -5.508361 28.598626 3.023606 0.074581
Spine -32.872063 1.632917 -5.020179
Head 29.247862 -26.170111 -17.091934
LeftShoulder -27.199687 45.343403 32.076449
LeftArm 141.165404 -52.280997 -162.640517
LeftForeArm -58.505980 -0.000000 120.367051
LeftHand -10.856883 -0.000000 -12.583938
LeftHandThumb1 -26.253704 0.000000 33.147579
RightShoulder -70.866818 47.052193 -141.989754
RightArm 54.353318 13.547970 59.363842
RightForeArm 33.470947 -0.000000 132.186990
RightHand 9.671290 -0.000000 -0.178200
RightHandThumb1 -24.326973 -0.000000 -32.862282
LeftUpLeg -21.535707 2.547393 0.808681
LeftLeg -1.224015 -0.000000 0.000000
LeftFoot -5.239532 -1.707110 -1.972915
LeftToeBase 2.819437 -0.000000 -0.000000
RightUpLeg -21.305891 -7.304288 4.573261
RightLeg -1.292676 -0.000000 0.000000
RightFoot -9.107436 -2.819490 11.256356
RightToeBase 15.389649 -0.000000 -0.000000
343
root -0.077419 32.562445 -5.518190 28.627902 3.002298 0.081758
Spine -32.832190 1.613041 -5.095034
Head 29.250859 -26.148431 -17.262327
LeftShoulder -27.343589 45.496940 31.904214
LeftArm 140.963825 -52.159788 -162.524796
LeftForeArm -58.370085 -0.000000 120.428483
LeftHand -10.790857 -0.000000 -12.567887
LeftHandThumb1 -26.253704 0.000000 33.147579
RightShoulder -70.826353 47.078150 -142.003344
RightArm 54.425002 13.553042 59.350869
RightForeArm 33.618851 -0.000000 132.170145
RightHand 9.313405 -0.000000 0.551961
RightHandThumb1 -24.326973 -0.000000 -32.862282
LeftUpLeg -21.565019 2.571090 0.802827
LeftLeg -1.256495 -0.000000 0.000000
LeftFoot -5.202532 -1.714713 -1.972189
LeftToeBase 2.843419 -0.000000 -0.000000
RightUpLeg -21.342874 -7.299252 4.581235
RightLeg -1.316413 -0.000000 0.000000
RightFoot -9.073584 -2.810848 11.239128
RightToeBase 15.358961 -0.000000 -0.000000
344
root -0.084936 32.562113 -5.528417 28.648550 2.983219 0.112887
Spine -32.770052 1.572326 -5.193090
Head 29.269637 -26.156368 -17.453994
LeftShoulder -27.419196 45.615057 31.794891
LeftArm 140.880130 -52.058804 -162.559971
LeftForeArm -58.446072 -0.000000 120.459201
LeftHand -10.822325 -0.000000 -12.683473
LeftHandThumb1 -26.253704 0.000000 33.147579
RightShoulder -70.793759 47.089484 -141.990033
RightArm 54.525171 13.551200 59.337338
RightForeArm 33.651867 0.000000 132.112738
RightHand 9.388594 -0.000000 0.404099
RightHandThumb1 -24.326973 -0.000000 -32.862282
LeftUpLeg -21.591777 2.600798 0.767350
LeftLeg -1.281523 -0.000000 0.000000
LeftFoot -5.164325 -1.727885 -1.996407
LeftToeBase 2.814139 -0.000000 -0.000000
RightUpLeg -21.360911 -7.296426 4.559509
RightLeg -1.360388 -0.000000 0.000000
RightFoot -9.074187 -2.780487 11.286341
RightToeBase 15.433905 -0.000000 -0.000000
345
root -0.093740 32.564135 -5.537489 28.672449 2.977659 0.092436
Spine -32.720915 1.544408 -5.225349
Head 29.280811 -26.099468 -17.593322
LeftShoulder -27.599569 45.849715 31.543542
LeftArm 140.801332 -51.830627 -162.562535
LeftForeArm -58.420651 -0.000000 120.522040
LeftHand -10.864238 -0.000000 -12.677150
LeftHandThumb1 -26.253704 0.000000 33.147579
RightShoulder -70.776744 47.072070 -142.040955
RightArm 54.599216 13.569350 59.387102
RightForeArm 33.651564 -0.000000 132.059592
RightHand 9.413040 -0.000000 0.712523
RightHandThumb1 -24.326973 -0.000000 -32.862282
LeftUpLeg -21.626244 2.645977 0.786679
LeftLeg -1.298630 -0.000000 0.000000
LeftFoot -5.135388 -1.758457 -1.997523
LeftToeBase 2.810743 -0.000000 -0.000000
RightUpLeg -21.395739 -7.317950 4.617651
RightLeg -1.379718 -0.000000 0.000000
RightFoot -9.037268 -2.763792 11.242922
RightToeBase 15.466529 -0.000000 -0.000000
